<?xml version="1.0" standalone="no"?>
<!DOCTYPE svg PUBLIC "-//W3C//DTD SVG 1.1//EN" "http://www.w3.org/Graphics/SVG/1.1/DTD/svg11.dtd">
<svg xmlns="http://www.w3.org/2000/svg" id="Layer_24" data-name="Layer 24" viewBox="0 0 798.41 566.36" width="798.4099731445312" height="566.3599853515625">
  <defs>
    <style>
      .cls-1 {
        fill-rule: evenodd;
      }

      .cls-1, .cls-2 {
        fill: #fff;
      }
    </style>
  </defs>
  <path class="cls-2" d="M68.29,323.34c-5.79,0-11.33-.95-16.64-2.84-5.21-1.99-9.86-4.93-13.94-8.82-3.98-3.98-7.21-8.91-9.67-14.79-2.37-5.97-3.56-12.9-3.56-20.77s1.18-14.65,3.56-20.62c2.37-6.07,5.59-11.14,9.67-15.22,4.08-4.17,8.87-7.35,14.37-9.53,5.5-2.18,11.38-3.27,17.64-3.27s11.38,1.23,16.21,3.7c4.84,2.37,8.91,5.12,12.23,8.25l-13.37,15.08c-2.18-1.9-4.46-3.37-6.83-4.41-2.37-1.04-5.12-1.57-8.25-1.57-2.85,0-5.5.62-7.97,1.85-2.47,1.23-4.6,2.99-6.4,5.26-1.8,2.28-3.22,5.07-4.27,8.39-1.04,3.32-1.57,7.06-1.57,11.24,0,8.72,1.99,15.41,5.97,20.05,3.98,4.65,9.1,6.97,15.36,6.97,3.04,0,5.79-.66,8.25-1.99,2.56-1.42,4.84-3.22,6.83-5.4l13.37,14.79c-3.89,4.55-8.49,7.96-13.8,10.24-5.21,2.28-10.95,3.41-17.21,3.41Z"/>
  <path class="cls-2" d="M144.75,323.34c-6.07,0-12.28-1.04-18.63-3.13-6.26-2.18-11.99-5.55-17.21-10.1l13.94-16.78c3.51,2.66,7.25,4.84,11.24,6.54,3.98,1.61,8.11,2.42,12.37,2.42,3.7,0,6.31-.52,7.82-1.57,1.61-1.04,2.42-2.32,2.42-3.84,0-1.33-.33-2.42-1-3.27-.57-.95-1.42-1.75-2.56-2.42-1.14-.76-2.56-1.47-4.27-2.13-1.61-.67-3.46-1.42-5.55-2.28l-11.52-4.84c-2.65-.95-5.17-2.18-7.54-3.7-2.37-1.61-4.46-3.46-6.26-5.55-1.71-2.18-3.08-4.65-4.12-7.39-1.04-2.75-1.57-5.79-1.57-9.1,0-3.98.85-7.68,2.56-11.09,1.71-3.51,4.08-6.54,7.11-9.1,3.13-2.65,6.83-4.74,11.09-6.26,4.36-1.52,9.2-2.27,14.51-2.27s11,1,16.5,2.99c5.5,1.99,10.53,5.12,15.08,9.39l-12.23,15.36c-3.32-2.18-6.54-3.84-9.67-4.98-3.03-1.14-6.73-1.71-11.09-1.71-2.75,0-4.98.52-6.68,1.57-1.61.95-2.42,2.51-2.42,4.69,0,1.04.33,1.99,1,2.85.66.76,1.61,1.47,2.84,2.13,1.23.66,2.75,1.33,4.55,1.99,1.8.66,3.84,1.42,6.12,2.28l10.67,4.41c6.26,2.28,11.05,5.45,14.36,9.53,3.42,4.08,5.12,9.34,5.12,15.79,0,3.89-.81,7.63-2.42,11.24-1.61,3.6-3.98,6.78-7.11,9.53-3.13,2.65-7.02,4.79-11.66,6.4-4.55,1.61-9.81,2.42-15.79,2.42Z"/>
  <path class="cls-1" d="M221.82,176.45c-8.18,0-14.81,6.63-14.81,14.82v154.08c0,8.18,6.63,14.82,14.81,14.82h542.26c8.18,0,14.82-6.63,14.82-14.82v-154.08c0-8.18-6.63-14.82-14.82-14.82H221.82ZM250.31,315.71v-59.6h-19.77v-8.82l19.77-.71v-5.83c0-8.44,2.23-15.22,6.69-20.34,4.55-5.12,11.61-7.68,21.19-7.68,6.83,0,13.46,1.33,19.91,3.98l-2.7,8.82c-2.84-1.33-5.5-2.18-7.96-2.56-2.37-.47-5.07-.71-8.11-.71-6.26,0-10.76,1.61-13.51,4.84-2.66,3.13-3.98,7.54-3.98,13.23v6.26h29.02v9.53h-29.02v59.6h-11.52ZM333.89,317.42c-4.55,0-8.91-.8-13.09-2.42-4.08-1.61-7.68-3.94-10.81-6.97-3.13-3.13-5.64-6.92-7.54-11.38-1.8-4.55-2.7-9.67-2.7-15.36s.9-10.91,2.7-15.36c1.9-4.55,4.41-8.39,7.54-11.52,3.13-3.13,6.73-5.5,10.81-7.11,4.17-1.61,8.53-2.42,13.09-2.42s8.86.81,12.94,2.42c4.17,1.61,7.82,3.98,10.95,7.11,3.13,3.13,5.59,6.97,7.4,11.52,1.9,4.46,2.85,9.58,2.85,15.36s-.95,10.81-2.85,15.36c-1.8,4.46-4.27,8.25-7.4,11.38-3.13,3.03-6.78,5.36-10.95,6.97-4.08,1.61-8.39,2.42-12.94,2.42ZM333.89,307.75c3.32,0,6.3-.62,8.96-1.85,2.75-1.33,5.07-3.13,6.97-5.4,1.99-2.37,3.51-5.17,4.55-8.39,1.04-3.22,1.57-6.83,1.57-10.81s-.52-7.59-1.57-10.81c-1.04-3.32-2.56-6.16-4.55-8.54-1.9-2.37-4.22-4.17-6.97-5.4-2.65-1.33-5.64-1.99-8.96-1.99s-6.36.67-9.1,1.99c-2.66,1.23-4.98,3.04-6.97,5.4-1.9,2.37-3.37,5.22-4.41,8.54-1.04,3.22-1.57,6.83-1.57,10.81s.52,7.59,1.57,10.81c1.04,3.22,2.51,6.02,4.41,8.39,1.99,2.28,4.31,4.08,6.97,5.4,2.75,1.23,5.78,1.85,9.1,1.85ZM387.31,246.59v69.12h11.66v-40.54c4.17-7.2,8.63-12.28,13.37-15.22,4.84-3.03,9.86-4.55,15.08-4.55,2.75,0,4.93.19,6.54.57,1.71.38,3.79,1,6.26,1.85l2.7-10.1c-2.18-1.04-4.36-1.75-6.54-2.13-2.18-.47-4.55-.71-7.11-.71-6.45,0-12.33,1.61-17.64,4.84-5.22,3.22-9.62,7.63-13.23,13.23h-.43l-1-16.36h-9.67ZM488.81,317.42c-5.5,0-10.67-.8-15.5-2.42-4.74-1.71-8.87-4.12-12.38-7.25-3.51-3.13-6.26-6.97-8.25-11.52-1.99-4.65-2.99-9.91-2.99-15.79s1-10.95,2.99-15.5c2.09-4.65,4.84-8.53,8.25-11.66,3.42-3.22,7.3-5.64,11.66-7.26,4.46-1.71,9.06-2.56,13.8-2.56,5.4,0,10.19.85,14.36,2.56,4.17,1.71,7.63,4.08,10.38,7.11,2.84,3.04,4.98,6.64,6.4,10.81,1.42,4.08,2.13,8.53,2.13,13.37,0,1.9-.14,3.74-.43,5.55-.19,1.71-.38,2.99-.57,3.84h-48.07c1.04,5.12,3.37,8.86,6.97,11.24,3.6,2.37,8.3,3.55,14.08,3.55,3.22,0,6.26-.43,9.1-1.28,2.94-.85,5.97-2.08,9.1-3.7l6.97,12.66c-4.08,2.56-8.58,4.6-13.51,6.12-4.93,1.42-9.77,2.13-14.51,2.13ZM487.1,259.39c-4.17,0-7.68,1.09-10.52,3.27-2.75,2.18-4.65,5.5-5.69,9.96h30.15c-1.04-8.82-5.69-13.23-13.94-13.23ZM532.14,311.3c1.99,1.9,4.41,3.37,7.25,4.41,2.85,1.14,6.07,1.71,9.67,1.71,4.55,0,8.96-.9,13.23-2.7,4.27-1.9,8.2-4.22,11.81-6.97h.57l1.57,7.96h17.07v-40.39c0-10.81-2.85-18.82-8.54-24.04-5.69-5.22-13.46-7.82-23.33-7.82-6.07,0-11.9.9-17.49,2.7-5.5,1.8-10.67,4.08-15.5,6.83l7.4,13.65c3.98-1.99,7.68-3.55,11.09-4.69,3.51-1.23,6.97-1.85,10.38-1.85,4.84,0,8.44.9,10.81,2.7,2.47,1.8,3.89,4.31,4.27,7.54-8.34.47-15.46,1.38-21.33,2.7-5.88,1.23-10.72,2.89-14.51,4.98-3.7,2.08-6.4,4.65-8.11,7.68-1.71,2.94-2.56,6.4-2.56,10.38,0,3.04.52,5.83,1.57,8.39,1.14,2.56,2.7,4.84,4.69,6.83ZM564.56,299.35c-2.75,1.23-5.69,1.85-8.82,1.85s-5.45-.52-7.25-1.56c-1.71-1.14-2.56-2.85-2.56-5.12,0-1.52.38-2.94,1.14-4.27.85-1.33,2.28-2.47,4.27-3.41,1.99-1.04,4.69-1.9,8.11-2.56,3.42-.66,7.73-1.14,12.94-1.42v11.66c-2.47,1.9-5.07,3.51-7.82,4.84ZM641.31,317.42c-5.59,0-10.76-.8-15.5-2.42-4.74-1.71-8.91-4.12-12.52-7.25-3.51-3.13-6.26-6.97-8.25-11.52-1.99-4.65-2.99-9.91-2.99-15.79s1.09-11.09,3.27-15.64c2.27-4.65,5.26-8.54,8.96-11.66,3.79-3.13,8.16-5.5,13.09-7.11,4.93-1.71,10.1-2.56,15.5-2.56s10.62.9,15.08,2.7c4.55,1.8,8.34,4.08,11.38,6.83l-9.67,12.94c-5.21-3.7-10.43-5.55-15.65-5.55-6.07,0-11,1.8-14.79,5.4-3.79,3.6-5.69,8.49-5.69,14.65s1.8,11.05,5.4,14.65c3.7,3.6,8.49,5.4,14.36,5.4,3.7,0,7.06-.66,10.1-1.99,3.13-1.33,5.97-2.89,8.53-4.69l8.39,13.23c-4.27,3.6-8.96,6.26-14.08,7.96-5.12,1.61-10.1,2.42-14.93,2.42ZM678.1,216.01v99.71h20.91v-47.08c2.47-2.47,4.74-4.31,6.83-5.55,2.18-1.23,4.69-1.85,7.54-1.85,3.89,0,6.59,1.09,8.11,3.27,1.52,2.18,2.28,5.64,2.28,10.38v40.82h20.91v-43.52c0-8.91-1.85-15.93-5.55-21.05-3.6-5.12-9.39-7.68-17.35-7.68-5.4,0-10.01,1.09-13.8,3.27-3.79,2.09-7.02,4.5-9.67,7.26h-.43l1.14-13.51v-24.47h-20.91Z"/>
</svg>